<svg width="32" height="32" viewBox="0 0 32 32" fill="none" xmlns="http://www.w3.org/2000/svg">
  <rect width="32" height="32" rx="6" fill="#0A0E14"/>
  <g transform="translate(16, 14)">
    <!-- V shape -->
    <path d="M-1,-10 L-6,6 L-4.5,6 L0,-6 L4.5,6 L6,6 L1,-10 Z" fill="#E0F7FA" opacity="0.95"/>
    <!-- Left wing -->
    <path d="M-2,-7 C-5,-9 -10,-11 -13,-10 C-10,-8 -6,-5 -3,-4" stroke="#22C55E" stroke-width="1.2" fill="none" opacity="0.8"/>
    <path d="M-2,-7 C-5,-9 -10,-11 -13,-10 C-8,-6 -4,-4 -2,-3 Z" fill="rgba(34,197,94,0.2)"/>
    <!-- Right wing -->
    <path d="M2,-7 C5,-9 10,-11 13,-10 C10,-8 6,-5 3,-4" stroke="#22C55E" stroke-width="1.2" fill="none" opacity="0.8"/>
    <path d="M2,-7 C5,-9 10,-11 13,-10 C8,-6 4,-4 2,-3 Z" fill="rgba(34,197,94,0.2)"/>
    <!-- Eye -->
    <circle cx="0" cy="-8.5" r="1" fill="#22C55E"/>
    <!-- Tail -->
    <path d="M0,5 L0,9" stroke="#00F2FF" stroke-width="0.8" opacity="0.5"/>
    <path d="M-1,5 L-2,8.5" stroke="#22C55E" stroke-width="0.6" opacity="0.4"/>
    <path d="M1,5 L2,8.5" stroke="#22C55E" stroke-width="0.6" opacity="0.4"/>
    <!-- Glow nodes -->
    <circle cx="-8" cy="-9" r="0.8" fill="#00F2FF" opacity="0.7"/>
    <circle cx="8" cy="-9" r="0.8" fill="#00F2FF" opacity="0.7"/>
  </g>
</svg>
